<?xml version="1.0" encoding="utf-8"?>
<!-- Generator: Adobe Illustrator 24.2.1, SVG Export Plug-In . SVG Version: 6.00 Build 0)  -->
<svg version="1.1" id="Layer_1" xmlns="http://www.w3.org/2000/svg" xmlns:xlink="http://www.w3.org/1999/xlink" x="0px" y="0px"
	 viewBox="0 0 170.4 101.9" style="enable-background:new 0 0 170.4 101.9;" xml:space="preserve">
<style type="text/css">
	.st0{fill:#336600;}
	.st1{fill:#666666;}
	.st2{fill:#FFCC00;}
</style>
<g>
	<path class="st0" d="M30,35.5l10.9,3.5c-0.6,2.9-1.8,5.7-3.5,8.2c-1.5,2.1-3.5,3.8-5.9,5c-2.8,1.2-5.9,1.8-8.9,1.7
		c-3.7,0.1-7.4-0.6-10.7-2c-3.1-1.6-5.6-4.1-7.2-7.2c-2-3.4-3-7.8-3-13.2C1.7,24.4,3.5,18.9,7,15c3.5-3.8,8.6-5.8,15-5.8
		c5.1,0,9.1,1.1,12,3.3s5.1,5.6,6.5,10.1l-11,2.6c-0.3-1-0.7-2-1.2-2.8c-0.7-1-1.5-1.8-2.6-2.4c-1-0.6-2.2-0.8-3.4-0.8
		c-2.7-0.1-5.2,1.3-6.5,3.6c-1.1,1.8-1.7,4.7-1.7,8.5c0,4.8,0.7,8.1,2,9.8c1.3,1.8,3.5,2.8,5.7,2.7c2,0.2,4-0.6,5.4-2.1
		C28.7,40,29.7,37.8,30,35.5z"/>
	<path class="st0" d="M47,10h12.4v15.1h13.6V10h12.5v43.2H73.1V35.7H59.5v17.5H47V10z"/>
	<path class="st0" d="M93.8,10h20.7c4.5,0,7.9,1.1,10.1,3.4c2.2,2.3,3.4,5.6,3.4,9.8c0,4.4-1.2,7.8-3.7,10.2
		c-2.4,2.5-6.2,3.7-11.2,3.6h-6.8v16H93.8V10z M106.3,28.4h3.1c2.4,0,4.1-0.4,5.1-1.3c1-0.9,1.5-2.1,1.5-3.4c0-1.3-0.4-2.5-1.3-3.4
		c-0.8-0.9-2.4-1.4-4.7-1.4h-3.6L106.3,28.4z"/>
	<path class="st0" d="M134.5,10h20.7c4.5,0,7.9,1.1,10.1,3.4c2.2,2.3,3.4,5.6,3.4,9.8c0,4.4-1.2,7.8-3.7,10.2
		c-2.4,2.5-6.2,3.7-11.2,3.6H147v16h-12.5V10z M147,28.4h3c2.4,0,4.1-0.4,5.1-1.3c1-0.9,1.5-2.1,1.5-3.4c0-1.3-0.4-2.5-1.3-3.4
		c-0.8-0.9-2.4-1.4-4.7-1.4H147L147,28.4z"/>
	<path class="st1" d="M17.2,70.9l2,0.9c-0.2,1.3-0.7,2.5-1.5,3.4c-0.7,0.7-1.7,1.1-2.7,1.1c-1.4,0-2.6-0.7-3.3-1.9
		c-0.9-1.6-1.4-3.4-1.3-5.2c-0.1-1.9,0.3-3.8,1.3-5.5c0.7-1.2,2-2,3.5-1.9c1.2,0,2.3,0.5,3,1.5c0.5,0.8,0.9,1.7,1,2.6l-2,0.7
		c-0.1-0.6-0.3-1.2-0.8-1.7c-0.3-0.4-0.9-0.6-1.4-0.6c-0.8,0-1.5,0.4-1.8,1.1c-0.6,1.1-0.8,2.4-0.7,3.6c-0.1,1.3,0.1,2.6,0.7,3.8
		c0.3,0.7,1,1.1,1.8,1.1c0.6,0,1.1-0.3,1.4-0.7C16.8,72.5,17.1,71.7,17.2,70.9z"/>
	<path class="st1" d="M20.9,76.1V61.9h7.6v2.4H23v3.1h5.1v2.4H23v3.8h5.7v2.4H20.9z"/>
	<path class="st1" d="M30.4,76.1V61.9h4.3c0.8,0,1.6,0.1,2.4,0.4c0.5,0.3,1,0.8,1.2,1.4c0.3,0.7,0.5,1.5,0.4,2.2
		c0,0.9-0.2,1.8-0.7,2.6c-0.5,0.7-1.2,1.2-2,1.3c0.4,0.3,0.8,0.7,1.1,1.2c0.5,0.7,0.8,1.5,1.2,2.3l1.3,2.8h-2.5L35.7,73
		c-0.3-0.7-0.7-1.4-1.1-2.1c-0.2-0.2-0.4-0.4-0.7-0.6c-0.3-0.1-0.7-0.2-1-0.2h-0.4v5.9H30.4z M32.5,67.9H34c0.6,0,1.2,0,1.9-0.2
		c0.3-0.1,0.5-0.3,0.6-0.6c0.2-0.3,0.2-0.7,0.2-1.1c0-0.4-0.1-0.8-0.3-1.1c-0.2-0.3-0.5-0.5-0.8-0.6c-0.5,0-1-0.1-1.5,0h-1.6V67.9z"
		/>
	<path class="st1" d="M43,76.1V64.3h-3v-2.4h8.1v2.4h-3v11.7H43z"/>
	<path class="st1" d="M49.4,76.1V61.9h2.1v14.1H49.4z"/>
	<path class="st1" d="M53.4,76.1V61.9h7v2.4h-4.9v3.3h4.3v2.4h-4.3v6H53.4z"/>
	<path class="st1" d="M62,76.1V61.9h2.1v14.1H62z"/>
	<path class="st1" d="M66,76.1V61.9h7.6v2.4h-5.5v3.1h5.1v2.4h-5.1v3.8h5.7v2.4H66z"/>
	<path class="st1" d="M75.5,61.9h3.8c0.6,0,1.3,0.1,1.9,0.3c0.6,0.3,1.2,0.7,1.5,1.3c0.4,0.7,0.8,1.5,0.9,2.3
		c0.2,1.1,0.4,2.2,0.3,3.3c0,1-0.1,2-0.3,3c-0.2,0.9-0.6,1.7-1.1,2.5c-0.4,0.5-0.9,0.9-1.5,1.1c-0.6,0.2-1.2,0.3-1.8,0.3h-3.9
		L75.5,61.9z M77.6,64.3v9.3h1.5c0.4,0,0.8,0,1.2-0.1c0.3-0.1,0.6-0.3,0.8-0.6c0.3-0.4,0.5-0.9,0.5-1.4c0.2-0.9,0.2-1.7,0.2-2.6
		c0-0.8,0-1.7-0.2-2.5c-0.1-0.5-0.3-1-0.6-1.4c-0.2-0.3-0.6-0.6-0.9-0.7c-0.6-0.1-1.1-0.2-1.7-0.1L77.6,64.3z"/>
	<path class="st1" d="M89.8,76.1V61.9h2v5.6h4V62h2.1v14.1h-2.1v-6.2h-4v6.2H89.8z"/>
	<path class="st1" d="M109.3,76.1H107l-0.9-3.2h-4.1l-0.8,3.2h-2.2l4-14.1h2.2L109.3,76.1z M105.5,70.5l-1.4-5.2l-1.4,5.2H105.5z"/>
	<path class="st1" d="M111.6,76.1V64.3h-3v-2.4h8.1v2.4h-3v11.7H111.6z"/>
	<path class="st1" d="M120.3,76.1V64.3h-3v-2.4h8.1v2.4h-3v11.7H120.3z"/>
	<path class="st1" d="M126.7,76.1V61.9h4.3c0.8,0,1.6,0.1,2.4,0.4c0.5,0.3,1,0.8,1.2,1.4c0.3,0.7,0.5,1.5,0.4,2.2
		c0,0.9-0.2,1.8-0.7,2.6c-0.5,0.7-1.2,1.2-2,1.3c0.4,0.3,0.8,0.7,1.1,1.2c0.4,0.7,0.8,1.5,1.2,2.3l1.2,2.8h-2.5L132,73
		c-0.5-1.1-0.9-1.8-1.1-2.1c-0.2-0.2-0.4-0.4-0.6-0.6c-0.3-0.1-0.7-0.2-1-0.2h-0.4v5.9H126.7z M128.8,67.9h1.5c0.6,0,1.2,0,1.9-0.2
		c0.3-0.1,0.5-0.3,0.6-0.6c0.1-0.3,0.2-0.7,0.2-1.1c0-0.4-0.1-0.8-0.3-1.1c-0.2-0.3-0.5-0.5-0.8-0.6c-0.5,0-1-0.1-1.5,0h-1.6
		L128.8,67.9z"/>
	<path class="st1" d="M137,76.1V61.9h2.1v14.1H137z"/>
	<path class="st1" d="M147.5,70.9l2,0.9c-0.2,1.3-0.7,2.5-1.5,3.4c-0.7,0.7-1.7,1.1-2.7,1.1c-1.4,0-2.6-0.7-3.3-1.9
		c-0.9-1.6-1.4-3.4-1.3-5.2c-0.1-1.9,0.3-3.8,1.3-5.5c0.7-1.2,2-2,3.5-1.9c1.2,0,2.3,0.5,3,1.5c0.5,0.8,0.9,1.7,1,2.6l-2,0.7
		c-0.1-0.6-0.3-1.2-0.8-1.7c-0.3-0.4-0.9-0.6-1.4-0.6c-0.8,0-1.5,0.4-1.8,1.1c-0.5,1.1-0.8,2.4-0.7,3.6c-0.1,1.3,0.1,2.6,0.7,3.8
		c0.3,0.7,1,1.1,1.8,1.1c0.6,0,1.1-0.3,1.4-0.7C147.1,72.5,147.4,71.7,147.5,70.9z"/>
	<path class="st1" d="M151.3,76.1V61.9h2.1v6.3l4.2-6.3h2.8l-3.8,5.5l4.1,8.6h-2.7l-2.8-6.6l-1.7,2.4v4.3H151.3z"/>
	<path class="st1" d="M11.7,99.7V85.6h3.3c0.8,0,1.6,0,2.4,0.2c0.6,0.3,1.2,0.8,1.5,1.4c0.4,0.9,0.6,1.8,0.6,2.7
		c0,0.7-0.1,1.5-0.3,2.2c-0.2,0.5-0.5,1-0.9,1.4c-0.3,0.3-0.7,0.5-1.1,0.7c-0.7,0.2-1.4,0.2-2.1,0.2h-1.3v5.3L11.7,99.7z M13.7,88v4
		h1.1c0.6,0,1.1,0,1.6-0.2c0.3-0.2,0.5-0.4,0.6-0.7c0.2-0.3,0.2-0.7,0.2-1.1c0-0.4-0.1-0.9-0.3-1.3c-0.2-0.3-0.5-0.5-0.8-0.6
		c-0.5-0.1-1-0.1-1.5-0.1H13.7z"/>
	<path class="st1" d="M21.2,99.7V85.6h4.3c0.8-0.1,1.6,0.1,2.4,0.4c0.5,0.3,1,0.8,1.2,1.3c0.3,0.7,0.5,1.5,0.4,2.2
		c0,0.9-0.2,1.8-0.7,2.6c-0.5,0.7-1.2,1.2-2,1.3c0.4,0.3,0.8,0.7,1.1,1.2c0.5,0.7,0.8,1.5,1.2,2.3l1.2,2.8h-2.5l-1.5-3.1
		c-0.3-0.7-0.7-1.4-1.1-2.1c-0.1-0.2-0.4-0.4-0.6-0.6c-0.3-0.1-0.7-0.2-1-0.2h-0.4v5.9L21.2,99.7z M23.2,91.6h1.5
		c0.6,0,1.2,0,1.9-0.2c0.3-0.1,0.5-0.3,0.6-0.6c0.2-0.3,0.2-0.7,0.2-1.1c0-0.4-0.1-0.8-0.3-1.1c-0.2-0.3-0.5-0.5-0.8-0.6
		c-0.5,0-1-0.1-1.5,0h-1.6V91.6z"/>
	<path class="st1" d="M31.1,92.7c0-1.2,0.1-2.4,0.5-3.6c0.2-0.7,0.5-1.3,0.9-1.9c0.3-0.5,0.8-0.9,1.3-1.3c0.7-0.4,1.4-0.6,2.2-0.6
		c1.5,0,2.8,0.7,3.6,1.9c1.8,3.4,1.8,7.4,0,10.7c-1.3,2-4,2.5-6,1.2c-0.5-0.3-0.9-0.7-1.2-1.2C31.4,96.4,31,94.6,31.1,92.7z
		 M33.2,92.6c-0.1,1.3,0.2,2.5,0.8,3.6c0.6,1.1,2,1.6,3.1,1c0.4-0.2,0.7-0.6,1-1c0.6-1.1,0.9-2.4,0.8-3.7c0.1-1.3-0.2-2.5-0.8-3.6
		c-0.4-0.7-1.2-1.2-2-1.2c-0.9,0-1.6,0.5-2.1,1.2C33.4,90.1,33.1,91.4,33.2,92.6L33.2,92.6z"/>
	<path class="st1" d="M42.5,85.6h3.8c0.6,0,1.3,0.1,1.9,0.3c0.6,0.3,1.2,0.7,1.5,1.3c0.4,0.7,0.8,1.5,0.9,2.3
		c0.2,1.1,0.4,2.2,0.3,3.3c0,1-0.1,2-0.3,3c-0.2,0.9-0.6,1.7-1.1,2.5c-0.4,0.5-0.9,0.9-1.5,1.1c-0.6,0.2-1.2,0.3-1.8,0.3h-3.9
		L42.5,85.6z M44.6,87.9v9.4h1.5c0.4,0,0.8,0,1.2-0.1c0.3-0.1,0.6-0.3,0.8-0.6c0.3-0.4,0.5-0.9,0.5-1.4c0.2-0.9,0.2-1.7,0.2-2.6
		c0-0.8-0.1-1.7-0.2-2.5c-0.1-0.5-0.3-1-0.6-1.4c-0.2-0.3-0.6-0.5-0.9-0.7c-0.6-0.1-1.1-0.2-1.7-0.1L44.6,87.9z"/>
	<path class="st1" d="M52.8,85.6h2.1v7.6c0,0.8,0,1.6,0.1,2.4c0.1,0.5,0.3,1,0.6,1.4c0.4,0.4,0.9,0.5,1.4,0.5c0.5,0,1-0.1,1.3-0.5
		c0.3-0.3,0.5-0.8,0.5-1.2c0.1-0.8,0.1-1.6,0.1-2.4v-7.8H61V93c0,1.2,0,2.4-0.2,3.6c-0.1,0.6-0.3,1.2-0.6,1.8
		c-0.3,0.5-0.7,0.9-1.2,1.2c-0.6,0.3-1.3,0.5-2,0.4c-0.8,0-1.5-0.1-2.2-0.5c-0.5-0.3-0.9-0.7-1.2-1.2c-0.3-0.5-0.5-1-0.6-1.6
		c-0.2-1.2-0.2-2.4-0.2-3.6L52.8,85.6z"/>
	<path class="st1" d="M69.7,94.5l2,0.9c-0.2,1.3-0.7,2.5-1.5,3.4c-0.7,0.7-1.7,1.2-2.7,1.1c-1.4,0-2.6-0.7-3.3-1.9
		c-1-1.6-1.4-3.4-1.3-5.2c-0.1-1.9,0.3-3.8,1.3-5.5c0.7-1.2,2.1-1.9,3.5-1.9c1.2,0,2.3,0.5,3,1.5c0.5,0.8,0.9,1.7,1,2.6l-2,0.7
		c-0.1-0.6-0.3-1.2-0.8-1.7c-0.3-0.4-0.9-0.6-1.4-0.6c-0.8,0-1.5,0.4-1.8,1.1c-0.6,1.1-0.8,2.4-0.7,3.6c-0.1,1.3,0.1,2.6,0.7,3.8
		c0.3,0.7,1,1.1,1.8,1.1c0.6,0,1.1-0.3,1.4-0.7C69.3,96.2,69.6,95.4,69.7,94.5z"/>
	<path class="st1" d="M75.7,99.7V88h-3v-2.4h8.1v2.4h-3v11.8H75.7z"/>
	<path class="st1" d="M86.1,99.7V85.6h3.3c0.8,0,1.6,0,2.4,0.2c0.6,0.3,1.2,0.8,1.5,1.4c0.4,0.9,0.6,1.8,0.6,2.7
		c0,0.7-0.1,1.5-0.3,2.2c-0.2,0.5-0.5,1-0.9,1.4c-0.3,0.3-0.7,0.5-1.1,0.7c-0.7,0.2-1.4,0.2-2.1,0.2h-1.3v5.3L86.1,99.7z M88.2,88v4
		h1.1c0.6,0,1.1,0,1.6-0.2c0.3-0.2,0.5-0.4,0.6-0.7c0.2-0.3,0.2-0.7,0.2-1.1c0-0.4-0.1-0.9-0.3-1.3c-0.2-0.3-0.5-0.5-0.8-0.6
		c-0.5-0.1-1-0.1-1.5-0.1H88.2z"/>
	<path class="st1" d="M95.6,99.7V85.6h4.3c0.8-0.1,1.6,0.1,2.4,0.4c0.5,0.3,1,0.8,1.2,1.3c0.3,0.7,0.5,1.5,0.4,2.2
		c0,1-0.2,1.9-0.8,2.7c-0.5,0.7-1.2,1.2-2,1.3c0.4,0.3,0.8,0.7,1.1,1.2c0.5,0.7,0.8,1.5,1.2,2.3l1.2,2.8h-2.4l-1.5-3.1
		c-0.3-0.7-0.7-1.4-1.1-2.1c-0.1-0.2-0.4-0.4-0.6-0.6c-0.3-0.1-0.7-0.2-1-0.2h-0.4v5.9L95.6,99.7z M97.7,91.6h1.5
		c0.6,0,1.2,0,1.9-0.2c0.3-0.1,0.5-0.3,0.6-0.6c0.2-0.3,0.2-0.7,0.2-1.1c0-0.4-0.1-0.8-0.3-1.1c-0.2-0.3-0.4-0.5-0.8-0.6
		c-0.5,0-1-0.1-1.5,0h-1.6V91.6z"/>
	<path class="st1" d="M105.5,92.7c0-1.2,0.1-2.4,0.5-3.6c0.2-0.7,0.5-1.3,0.9-1.9c0.3-0.5,0.8-1,1.3-1.3c0.7-0.4,1.4-0.6,2.2-0.6
		c1.5,0,2.8,0.7,3.6,1.9c1,1.6,1.5,3.5,1.4,5.4c0.1,1.9-0.4,3.7-1.3,5.3c-1.3,2-4,2.5-6,1.2c-0.5-0.3-0.9-0.7-1.2-1.2
		C105.8,96.4,105.4,94.6,105.5,92.7z M107.6,92.6c-0.1,1.3,0.2,2.5,0.8,3.6c0.4,0.7,1.2,1.2,2,1.2c0.8,0,1.6-0.5,2-1.2
		c1-2.3,1-5,0-7.3c-0.4-0.7-1.2-1.2-2.1-1.2c-0.9,0-1.6,0.5-2.1,1.2C107.8,90.1,107.5,91.4,107.6,92.6z"/>
	<path class="st1" d="M119.6,99.7l-3.6-14.1h2.2l2.6,10.4l2.5-10.4h2.2l-3.7,14.1L119.6,99.7z"/>
	<path class="st1" d="M126.4,99.7V85.6h2.1v14.1H126.4z"/>
	<path class="st1" d="M130.4,85.6h3.8c0.7,0,1.3,0.1,1.9,0.3c0.6,0.3,1.2,0.7,1.5,1.3c0.5,0.7,0.8,1.5,0.9,2.3
		c0.2,1.1,0.4,2.2,0.3,3.3c0,1-0.1,2-0.3,3c-0.2,0.9-0.6,1.7-1.1,2.5c-0.4,0.5-0.9,0.9-1.4,1.1c-0.6,0.2-1.2,0.3-1.8,0.3h-3.9
		L130.4,85.6z M132.5,87.9v9.4h1.5c0.4,0,0.8,0,1.2-0.1c0.3-0.1,0.6-0.3,0.8-0.6c0.3-0.4,0.5-0.9,0.5-1.4c0.2-0.9,0.2-1.7,0.2-2.6
		c0-0.8,0-1.7-0.2-2.5c-0.1-0.5-0.3-1-0.6-1.4c-0.2-0.3-0.6-0.5-0.9-0.7c-0.6-0.1-1.1-0.2-1.7-0.1L132.5,87.9z"/>
	<path class="st1" d="M140.7,99.7V85.6h7.6v2.4h-5.5v3.1h5.1v2.4h-5.1v3.8h5.7v2.4L140.7,99.7z"/>
	<path class="st1" d="M150.2,99.7V85.6h4.3c0.8-0.1,1.6,0.1,2.4,0.4c0.5,0.3,1,0.8,1.2,1.3c0.3,0.7,0.5,1.5,0.4,2.2
		c0,0.9-0.2,1.8-0.7,2.6c-0.5,0.7-1.2,1.2-2,1.3c0.4,0.3,0.8,0.7,1.1,1.2c0.4,0.7,0.8,1.5,1.2,2.3l1.3,2.8H157l-1.5-3
		c-0.3-0.7-0.7-1.4-1.1-2.1c-0.2-0.2-0.4-0.4-0.6-0.6c-0.3-0.1-0.7-0.2-1-0.2h-0.4v5.9L150.2,99.7z M152.3,91.6h1.5
		c0.6,0,1.2,0,1.9-0.2c0.3-0.1,0.5-0.3,0.6-0.6c0.1-0.3,0.2-0.7,0.2-1.1c0-0.4-0.1-0.8-0.3-1.1c-0.2-0.3-0.5-0.5-0.8-0.6
		c-0.5,0-1-0.1-1.5,0h-1.6V91.6z"/>
	<path class="st2" d="M115.3,39.9L115.3,39.9l-9.5-7.8c-0.2-0.2-0.4-0.2-0.7-0.2c-0.2,0-0.5,0.1-0.7,0.2l-13,7.8
		c0,0-0.1,0.1-0.2,0.1c-0.1,0-0.1-0.1,0-0.2l7-13.1c0.3-0.4,0.2-1-0.2-1.3L89,17c0,0,0-0.1,0-0.1c0.1-0.2,0.2-0.3,0.4-0.3l13.8-0.3
		c0.5,0,0.9-0.3,1.1-0.7l7.5-12.9c0.1-0.1,0.2-0.2,0.3-0.2l1.6,13c0,0.5,0.5,0.9,0.9,0.9l13.6,0.3l0.1,0.1c0,0.1-0.1,0.2-0.2,0.2
		l-12.8,8.3c-0.4,0.2-0.6,0.7-0.6,1.2l0.9,13.1c0,0.1,0,0.2-0.1,0.2C115.5,39.8,115.4,39.9,115.3,39.9z"/>
	<path class="st2" d="M112.1,3L112.1,3 M111.7,3.6l1.4,11.9c0.1,0.7,0.7,1.3,1.5,1.3l12.5,0.2l-12,7.8c-0.5,0.3-0.9,1-0.8,1.6
		l0.9,12.8l-9.1-7.5c-0.3-0.2-0.6-0.3-0.9-0.3c-0.3,0-0.6,0.1-0.9,0.3l-12,7.2l6.3-12c0.4-0.6,0.3-1.4-0.3-1.9l-8.5-7.9l13.3-0.3
		c0.6,0,1.2-0.4,1.5-0.9L111.7,3.6 M112.1,1.9c-0.3,0-0.6,0.2-0.7,0.5l-7.5,12.9c-0.2,0.3-0.4,0.4-0.7,0.5l-13.8,0.3
		c-0.6,0-1.1,0.8-0.7,1.2l9,8.3c0.2,0.2,0.2,0.5,0.1,0.7l-7,13.1c-0.2,0.2-0.1,0.6,0.1,0.8c0.1,0.1,0.2,0.1,0.3,0.1
		c0.1,0,0.3,0,0.4-0.1l13-7.8c0.1-0.1,0.3-0.1,0.4-0.1c0.1,0,0.3,0,0.4,0.1l9.5,7.8c0.1,0.1,0.2,0.1,0.4,0.1c0.5,0,0.8-0.4,0.8-0.9
		l-0.9-13.1c0-0.3,0.2-0.6,0.4-0.7l12.8-8.3c0.6-0.4,0.5-1.2-0.1-1.2l-13.7-0.3c-0.3,0-0.5-0.2-0.5-0.5l-1.5-12.9
		C112.5,2.2,112.3,2,112.1,1.9L112.1,1.9z"/>
</g>
</svg>
